<?xml version="1.0" standalone="no"?>
<!DOCTYPE svg PUBLIC "-//W3C//DTD SVG 20010904//EN"
 "http://www.w3.org/TR/2001/REC-SVG-20010904/DTD/svg10.dtd">
<svg version="1.0" xmlns="http://www.w3.org/2000/svg"
 width="500.000000pt" height="500.000000pt" viewBox="0 0 500.000000 500.000000"
 preserveAspectRatio="xMidYMid meet">

<g transform="translate(0.000000,500.000000) scale(0.100000,-0.100000)"
fill="#000000" stroke="none">
<path d="M0 2500 l0 -2500 2500 0 2500 0 0 2500 0 2500 -2500 0 -2500 0 0
-2500z m774 925 c4 -14 13 -121 22 -238 22 -294 29 -890 15 -1276 -6 -178 -10
-326 -8 -327 2 -2 38 47 79 109 101 148 222 292 306 362 67 56 209 135 242
135 9 0 22 11 28 24 6 14 22 26 41 29 54 11 61 3 54 -68 -12 -133 17 -173 78
-108 30 33 37 50 48 116 11 67 16 80 37 89 20 9 28 8 40 -4 13 -12 16 -40 15
-137 l-1 -122 79 63 79 63 3 65 c4 64 4 65 33 65 25 0 31 -5 40 -39 l11 -39
29 37 c52 69 133 97 170 60 19 -18 19 -20 20 -144 1 -116 16 -128 69 -54 l34
46 6 217 c11 338 41 620 75 690 39 79 110 92 138 26 36 -86 5 -298 -98 -686
l-34 -125 41 43 c38 40 46 43 93 43 54 0 82 -17 82 -49 0 -31 -43 -85 -98
-121 l-52 -34 33 -34 c65 -69 121 -71 209 -7 55 41 61 62 56 225 l-3 105 -60
5 c-44 4 -60 9 -60 20 0 11 16 16 65 20 l65 5 7 75 c8 76 24 107 51 97 11 -4
17 -27 22 -74 3 -37 7 -75 8 -83 2 -12 25 -15 127 -17 193 -2 190 -2 190 -17
0 -18 -64 -26 -200 -26 -77 0 -111 -4 -118 -13 -18 -21 -21 -379 -3 -400 30
-38 92 -12 193 78 43 39 44 40 29 66 -34 60 31 151 76 106 13 -12 14 -21 4
-48 -16 -46 -15 -48 29 -42 65 9 74 -5 65 -109 -6 -82 -5 -88 13 -88 34 0 112
106 112 154 0 43 42 108 88 134 76 43 208 23 200 -30 -5 -34 -48 -57 -118 -64
-95 -9 -118 -52 -61 -116 26 -29 35 -33 76 -31 47 2 134 37 212 86 28 18 48
41 61 70 29 64 80 100 153 105 72 5 105 -2 119 -28 24 -45 -22 -76 -131 -88
l-64 -7 -3 -41 c-4 -48 24 -89 67 -99 39 -8 133 24 223 78 90 53 108 60 108
44 0 -33 -128 -121 -227 -157 -113 -41 -209 -15 -247 65 l-17 35 -45 -31 c-98
-67 -218 -103 -288 -85 -15 4 -44 22 -65 41 l-39 35 -12 -30 c-15 -36 -71 -87
-105 -96 -73 -18 -102 26 -88 135 l9 71 -27 0 c-22 0 -46 -18 -106 -78 -88
-89 -138 -117 -188 -108 -43 8 -83 55 -91 107 l-6 39 -50 -45 c-27 -24 -65
-49 -85 -55 -75 -26 -156 9 -205 87 l-23 38 -5 -82 c-6 -94 -22 -123 -59 -104
-18 10 -21 21 -21 74 l0 62 -27 -34 c-36 -46 -85 -66 -121 -49 -40 19 -52 67
-45 171 6 94 -1 107 -35 60 -29 -41 -68 -122 -82 -170 -16 -52 -41 -77 -69
-68 -18 5 -21 15 -21 56 0 27 -4 49 -9 49 -4 0 -38 -27 -74 -60 -88 -81 -94
-102 -100 -350 -5 -205 -16 -273 -60 -360 -31 -62 -95 -95 -156 -81 -83 18
-121 82 -121 201 0 130 73 287 200 433 57 64 60 71 60 119 l0 51 -23 -21 c-30
-28 -77 -37 -121 -22 -43 14 -72 48 -86 101 -6 22 -16 39 -23 39 -28 0 -167
-104 -243 -182 -100 -101 -194 -226 -298 -395 -97 -156 -102 -163 -135 -163
-54 0 -55 5 -42 162 32 388 32 1190 0 1697 -12 184 -12 194 6 207 23 17 51 3
59 -31z"/>
<path d="M2491 3032 c-24 -44 -52 -266 -65 -512 l-5 -95 19 74 c27 103 70 361
77 457 6 83 -5 115 -26 76z"/>
<path d="M2503 2265 c-26 -18 -67 -74 -60 -81 16 -16 117 62 117 91 0 11 -36
4 -57 -10z"/>
<path d="M3573 2242 c-12 -2 -26 -9 -32 -16 -8 -10 -4 -11 19 -8 17 2 33 9 36
14 8 12 3 14 -23 10z"/>
<path d="M4001 2234 c-19 -8 -32 -16 -29 -19 8 -8 79 16 73 26 -4 5 -7 9 -8 9
-1 -1 -17 -7 -36 -16z"/>
<path d="M1623 1752 c-108 -162 -151 -339 -103 -431 53 -105 102 -26 129 209
17 145 24 270 15 270 -5 0 -23 -21 -41 -48z"/>
</g>
</svg>
